# xmcd
#
# Track frame offsets:
#  150
#  14050
#  30560
#  48244
#  71597
#  90376
#  107148
#  123718
#  143414
#  159895
#  180719
#  198407
#  220120
#  244357
#
# Disc length: 3465 seconds
#
# Revision: 0
# Processed by: cddbd v1.5.1PL2 Copyright (c) Steve Scherf et al.
# Submitted via: Collectorz.com_Music_Collector 6.10
#
DISCID=bf0d870e
DTITLE=Kimmie Rhodes - ten summers
DYEAR=2005
DGENRE=Country
TTITLE0=west texas heaven
TTITLE1=maybe we'll just disappear
TTITLE2=i'm gonna fly
TTITLE3=the road to jubilee
TTITLE4=i'm not an angel
TTITLE5=rich from the journey
TTITLE6=thank you for another day
TTITLE7=big ol' train
TTITLE8=love me like a song
TTITLE9=only love can save me now
TTITLE10=send me the sun
TTITLE11=love and happiness for you
TTITLE12=desert train
TTITLE13=windblown
EXTD=
EXTT0=
EXTT1=
EXTT2=
EXTT3=
EXTT4=
EXTT5=
EXTT6=
EXTT7=
EXTT8=
EXTT9=
EXTT10=
EXTT11=
EXTT12=
EXTT13=
PLAYORDER=
